<?xml version="1.0" standalone="no"?>
<!DOCTYPE svg PUBLIC "-//W3C//DTD SVG 20010904//EN"
 "http://www.w3.org/TR/2001/REC-SVG-20010904/DTD/svg10.dtd">
<svg version="1.0" xmlns="http://www.w3.org/2000/svg"
 width="64.000000pt" height="90.000000pt" viewBox="0 0 64.000000 90.000000"
 preserveAspectRatio="xMidYMid meet">

<g transform="translate(0.000000,90.000000) scale(0.100000,-0.100000)"
fill="#006BC0" stroke="none">
<path d="M150 840 l0 -60 50 0 c43 0 50 3 50 20 0 16 -7 20 -30 20 -23 0 -30
4 -30 20 0 16 7 20 30 20 23 0 30 4 30 20 0 17 -7 20 -50 20 l-50 0 0 -60z"/>
<path d="M270 861 c0 -36 3 -40 28 -44 l27 -4 -27 -2 c-18 0 -28 -7 -28 -16 0
-11 12 -15 45 -15 l45 0 0 60 0 60 -45 0 -45 0 0 -39z"/>
<path d="M380 861 c0 -37 2 -40 33 -44 l32 -4 -32 -1 c-22 -1 -33 -7 -33 -17
0 -11 12 -15 50 -15 l50 0 0 60 0 60 -50 0 -50 0 0 -39z"/>
<path d="M5 683 c3 -21 17 -166 30 -322 14 -157 27 -286 28 -287 1 -1 59 -17
130 -37 l127 -35 128 35 c70 19 128 36 129 37 1 1 13 132 27 291 14 160 28
305 30 323 l5 32 -320 0 -319 0 5 -37z m515 -110 c0 -58 -35 -389 -41 -393 -5
-3 -42 -14 -83 -24 l-75 -19 -86 23 -85 23 0 41 c0 23 -3 51 -6 64 -6 20 -3
22 39 22 44 0 46 -1 49 -31 3 -28 8 -34 43 -44 30 -8 52 -8 85 0 l45 11 3 52
3 52 -135 0 c-75 0 -136 4 -136 9 0 5 -3 23 -6 40 l-6 31 145 0 c142 0 145 0
151 23 16 59 20 57 -149 57 l-155 0 0 40 0 40 200 0 c184 0 200 -1 200 -17z"/>
</g>
</svg>
