<?xml version="1.0" standalone="no"?>
<!DOCTYPE svg PUBLIC "-//W3C//DTD SVG 20010904//EN"
 "http://www.w3.org/TR/2001/REC-SVG-20010904/DTD/svg10.dtd">
<svg version="1.0" xmlns="http://www.w3.org/2000/svg"
 width="1100.000000pt" height="1553.000000pt" viewBox="0 0 1100.000000 1553.000000"
 preserveAspectRatio="xMidYMid meet">

<g transform="translate(0.000000,1553.000000) scale(0.100000,-0.100000)"
fill="#E34C26" stroke="none">
<path d="M1020 14485 l0 -1045 350 0 350 0 2 348 3 347 318 3 317 2 0 -350 0
-350 350 0 350 0 0 1045 0 1045 -350 0 -350 0 0 -345 0 -345 -320 0 -320 0 0
345 0 345 -350 0 -350 0 0 -1045z"/>
<path d="M3370 15185 l0 -345 305 0 305 0 0 -700 0 -700 350 0 350 0 2 698 3
697 308 3 307 2 0 345 0 345 -965 0 -965 0 0 -345z"/>
<path d="M5610 14485 l0 -1045 340 0 340 0 2 514 3 515 239 -370 c131 -203
241 -369 245 -369 4 0 115 167 246 371 l240 371 3 -516 2 -516 345 0 345 0 0
1045 0 1045 -363 0 -364 0 -222 -365 c-122 -201 -224 -365 -226 -365 -2 0
-104 164 -226 365 l-223 365 -363 0 -363 0 0 -1045z"/>
<path d="M8310 14485 l0 -1045 845 0 845 0 -2 343 -3 342 -492 3 -493 2 0 700
0 700 -350 0 -350 0 0 -1045z"/>
<path d="M6 12453 c2 -10 227 -2533 500 -5608 274 -3075 498 -5591 499 -5593
5 -6 4472 -1244 4490 -1244 29 0 4485 1238 4494 1248 4 5 231 2522 505 5594
273 3072 498 5593 500 5603 4 16 -263 17 -5494 17 -5231 0 -5498 -1 -5494 -17z
m8944 -2267 c0 -2 -27 -305 -60 -672 -33 -368 -60 -679 -60 -691 l0 -23 -2635
0 -2635 0 0 -24 c0 -14 27 -327 60 -697 33 -369 60 -673 60 -675 0 -2 1130 -4
2510 -4 2001 0 2510 -3 2510 -12 -1 -61 -378 -4219 -382 -4224 -4 -3 -640
-181 -1413 -396 l-1407 -390 -1411 392 c-777 215 -1413 393 -1415 394 -3 4
-192 2110 -192 2144 l0 22 693 0 693 0 48 -549 49 -548 764 -207 763 -206 768
207 c422 114 767 207 768 207 3 2 154 1724 154 1748 l0 28 -2382 2 -2383 3
-186 2080 c-102 1144 -184 2083 -182 2088 4 7 6903 11 6903 3z"/>
</g>
</svg>
