<svg width="24" height="24" viewBox="0 0 24 24" fill="none" xmlns="http://www.w3.org/2000/svg">
<g id="Java" clip-path="url(#clip0)">
<path id="Vector" d="M13.116 11.475C14.274 12.808 12.812 14.008 12.812 14.008C12.812 14.008 15.751 12.49 14.401 10.59C13.14 8.818 12.173 7.938 17.408 4.902C17.408 4.902 9.19197 6.953 13.116 11.475ZM14.401 0C14.401 0 16.895 2.494 12.036 6.33C8.13997 9.407 11.148 11.162 12.035 13.166C9.76097 11.113 8.09197 9.308 9.21097 7.627C10.855 5.158 15.408 3.962 14.401 0Z" fill="#ED8B00"/>
<path id="Vector_2" d="M9.70126 18.5819C9.70126 18.5819 8.78426 19.1159 10.3543 19.2959C12.2563 19.5139 13.2283 19.4829 15.3233 19.0849C15.3233 19.0849 15.8753 19.4309 16.6443 19.7309C11.9453 21.7439 6.01126 19.6129 9.70126 18.5819ZM9.12626 15.9549C9.12626 15.9549 8.09826 16.7159 9.66826 16.8789C11.7003 17.0879 13.3043 17.1059 16.0813 16.5709C16.0813 16.5709 16.4653 16.9599 17.0683 17.1729C11.3893 18.8339 5.06126 17.3029 9.12626 15.9549ZM20.1803 20.5259C20.1803 20.5259 20.8593 21.0849 19.4333 21.5169C16.7213 22.3389 8.14526 22.5859 5.76426 21.5499C4.90826 21.1769 6.51426 20.6599 7.01826 20.5519C7.54526 20.4379 7.84626 20.4589 7.84626 20.4589C6.89326 19.7879 1.69026 21.7759 5.20326 22.3459C14.7833 23.8989 22.6653 21.6459 20.1803 20.5259ZM10.1423 13.2319C10.1423 13.2319 5.78026 14.2679 8.59826 14.6439C9.78726 14.8029 12.1593 14.7669 14.3683 14.5819C16.1743 14.4299 17.9863 14.1049 17.9863 14.1049C17.9863 14.1049 17.3493 14.3769 16.8883 14.6919C12.4593 15.8569 3.90226 15.3149 6.36626 14.1239C8.44826 13.1179 10.1423 13.2319 10.1423 13.2319ZM17.9663 17.6059C22.4693 15.2659 20.3873 13.0169 18.9343 13.3209C18.5793 13.3949 18.4193 13.4589 18.4193 13.4589C18.4193 13.4589 18.5513 13.2519 18.8043 13.1619C21.6793 12.1509 23.8903 16.1429 17.8763 17.7239C17.8763 17.7239 17.9463 17.6619 17.9663 17.6059ZM10.5843 23.9459C14.9063 24.2229 21.5433 23.7929 21.7003 21.7479C21.7003 21.7479 21.3983 22.5229 18.1283 23.1389C14.4403 23.8329 9.88926 23.7519 7.19126 23.3069C7.19126 23.3069 7.74426 23.7639 10.5843 23.9459Z" fill="#007396"/>
</g>
<defs>
<clipPath id="clip0">
<rect width="24" height="24" fill="white"/>
</clipPath>
</defs>
</svg>
