<svg width="24" height="24" viewBox="0 0 24 24" fill="none" xmlns="http://www.w3.org/2000/svg">
<g id="mysql">
<path id="Vector" d="M16.405 5.50101C16.29 5.50101 16.212 5.51501 16.131 5.53401V5.54701H16.145C16.199 5.65101 16.291 5.72701 16.359 5.82001C16.413 5.92701 16.459 6.03401 16.513 6.14001L16.527 6.12501C16.621 6.05901 16.667 5.95301 16.667 5.79201C16.627 5.74501 16.621 5.69801 16.587 5.65201C16.547 5.58501 16.461 5.55201 16.407 5.49901L16.405 5.50101ZM5.77 18.695H4.843C4.81693 17.2218 4.72685 15.7504 4.573 14.285H4.565L3.155 18.695H2.45L1.05 14.285H1.04C0.930493 15.7527 0.865464 17.2234 0.845 18.695H0C0.055 16.729 0.192 14.885 0.41 13.165H1.56L2.895 17.229H2.903L4.25 13.165H5.345C5.587 15.18 5.729 17.025 5.773 18.695H5.77ZM9.787 14.615C9.409 16.66 8.911 18.148 8.295 19.075C7.813 19.791 7.285 20.148 6.712 20.148C6.559 20.148 6.372 20.102 6.146 20.01V19.516C6.256 19.533 6.386 19.542 6.532 19.542C6.8 19.542 7.015 19.467 7.179 19.32C7.376 19.14 7.474 18.938 7.474 18.715C7.474 18.56 7.397 18.245 7.244 17.771L6.23 14.615H7.14L7.867 16.975C8.031 17.511 8.1 17.885 8.072 18.098C8.472 17.034 8.75 15.871 8.907 14.615H9.787ZM23.224 11.311C22.689 11.297 22.274 11.351 21.927 11.499C21.827 11.539 21.667 11.539 21.653 11.666C21.708 11.719 21.716 11.806 21.763 11.88C21.843 12.014 21.981 12.193 22.109 12.287C22.249 12.397 22.389 12.503 22.536 12.597C22.796 12.757 23.091 12.852 23.346 13.013C23.491 13.107 23.639 13.226 23.786 13.326C23.859 13.376 23.906 13.466 24 13.498V13.478C23.954 13.418 23.94 13.331 23.895 13.264C23.828 13.197 23.761 13.137 23.695 13.071C23.4987 12.8123 23.2644 12.5847 23 12.396C22.786 12.25 22.318 12.046 22.23 11.801L22.217 11.787C22.363 11.774 22.537 11.721 22.677 11.681C22.904 11.621 23.112 11.634 23.347 11.575C23.453 11.548 23.56 11.515 23.667 11.481V11.421C23.547 11.301 23.457 11.138 23.333 11.026C22.9869 10.7235 22.6178 10.4483 22.229 10.203C22.019 10.069 21.753 9.98301 21.532 9.86901C21.452 9.82901 21.318 9.80901 21.272 9.74201C21.152 9.59601 21.082 9.40201 20.997 9.22801C20.8006 8.84709 20.6182 8.45917 20.45 8.06501C20.33 7.80301 20.257 7.54201 20.11 7.30201C19.42 6.16501 18.673 5.47601 17.524 4.80201C17.277 4.66201 16.981 4.60201 16.668 4.52801C16.501 4.52001 16.334 4.50801 16.168 4.50101C16.058 4.45401 15.952 4.32701 15.858 4.26601C15.478 4.02601 14.494 3.50601 14.214 4.19401C14.034 4.62801 14.481 5.05601 14.636 5.27601C14.751 5.42901 14.896 5.60401 14.976 5.77601C15.023 5.89201 15.036 6.01101 15.083 6.13201C15.189 6.42601 15.29 6.75401 15.43 7.02901C15.503 7.16901 15.583 7.31601 15.677 7.44201C15.731 7.51501 15.823 7.54901 15.844 7.66901C15.75 7.80501 15.744 8.00301 15.69 8.16901C15.45 8.92601 15.544 9.86201 15.884 10.419C15.991 10.585 16.246 10.953 16.587 10.812C16.887 10.692 16.821 10.312 16.907 9.97701C16.927 9.89701 16.914 9.84401 16.955 9.79001V9.80501C17.049 9.99301 17.143 10.172 17.229 10.36C17.435 10.688 17.795 11.028 18.096 11.255C18.256 11.375 18.383 11.583 18.583 11.657V11.637H18.568C18.525 11.579 18.468 11.551 18.414 11.504C18.2872 11.3799 18.1702 11.2462 18.064 11.104C17.7822 10.719 17.5324 10.3117 17.317 9.88601C17.207 9.67601 17.115 9.45001 17.027 9.24301C16.987 9.16301 16.987 9.04301 16.92 9.00301C16.82 9.14901 16.673 9.27601 16.6 9.45601C16.473 9.74401 16.46 10.098 16.412 10.466C16.385 10.473 16.398 10.466 16.385 10.48C16.171 10.428 16.098 10.206 16.018 10.02C15.818 9.54501 15.785 8.78201 15.958 8.23501C16.005 8.09501 16.205 7.65301 16.125 7.51901C16.083 7.39201 15.951 7.31901 15.878 7.21601C15.7841 7.08195 15.7037 6.93892 15.638 6.78901C15.478 6.41501 15.398 6.00101 15.224 5.62701C15.144 5.45401 15.004 5.27301 14.89 5.11401C14.763 4.93401 14.623 4.80701 14.522 4.59401C14.489 4.52101 14.442 4.40001 14.495 4.32001C14.509 4.26601 14.537 4.24501 14.589 4.23001C14.677 4.15801 14.924 4.25201 15.011 4.29201C15.258 4.39201 15.466 4.48601 15.673 4.62601C15.767 4.69201 15.868 4.81901 15.988 4.85201H16.128C16.342 4.89901 16.583 4.86601 16.783 4.92501C17.138 5.03901 17.458 5.20501 17.745 5.38501C18.6293 5.94992 19.3486 6.73856 19.83 7.67101C19.91 7.82501 19.945 7.96601 20.018 8.12601C20.158 8.45601 20.331 8.78901 20.473 9.10801C20.613 9.42301 20.748 9.74401 20.949 10.005C21.049 10.145 21.451 10.218 21.631 10.291C21.764 10.351 21.971 10.406 22.091 10.479C22.321 10.619 22.545 10.779 22.761 10.933C22.871 11.009 23.204 11.176 23.224 11.311Z" fill="#4479A1"/>
<path id="Vector_2" d="M21.743 18.614H19.113V13.084H19.998V17.934H21.743V18.614ZM18.423 18.749L17.407 18.249C17.497 18.173 17.584 18.091 17.662 17.999C18.095 17.493 18.31 16.741 18.31 15.746C18.31 13.916 17.592 13 16.155 13C15.451 13 14.901 13.232 14.505 13.697C14.075 14.205 13.859 14.953 13.859 15.942C13.859 16.914 14.049 17.628 14.433 18.082C14.783 18.492 15.31 18.697 16.016 18.697C16.28 18.697 16.522 18.664 16.741 18.599L18.066 19.371L18.426 18.749H18.423ZM15.131 17.507C14.906 17.147 14.794 16.567 14.794 15.771C14.794 14.378 15.218 13.681 16.064 13.681C16.507 13.681 16.834 13.848 17.041 14.181C17.265 14.543 17.377 15.117 17.377 15.904C17.377 17.308 16.953 18.012 16.107 18.012C15.662 18.012 15.337 17.845 15.129 17.512L15.131 17.507ZM13.473 17.082C13.473 17.552 13.301 17.938 12.957 18.238C12.613 18.538 12.154 18.688 11.573 18.688C11.03 18.688 10.509 18.516 10 18.173L10.237 17.697C10.675 17.917 11.07 18.025 11.427 18.025C11.759 18.025 12.02 17.952 12.21 17.805C12.305 17.7334 12.3816 17.6404 12.4338 17.5335C12.4859 17.4266 12.512 17.3089 12.51 17.19C12.51 16.86 12.28 16.58 11.862 16.345C11.474 16.132 10.699 15.688 10.699 15.688C10.277 15.381 10.067 15.052 10.067 14.511C10.067 14.061 10.224 13.701 10.537 13.426C10.852 13.148 11.257 13.011 11.757 13.011C12.269 13.011 12.737 13.147 13.157 13.421L12.944 13.897C12.6084 13.7496 12.2465 13.6714 11.88 13.667C11.597 13.667 11.378 13.735 11.226 13.873C11.1489 13.9369 11.0867 14.0169 11.0438 14.1075C11.001 14.198 10.9785 14.2968 10.978 14.397C10.978 14.725 11.212 15.007 11.644 15.247C12.037 15.462 12.831 15.917 12.831 15.917C13.264 16.222 13.479 16.547 13.479 17.085L13.473 17.082Z" fill="#F29418"/>
</g>
</svg>
