<svg width="24" height="24" viewBox="0 0 24 24" fill="none" xmlns="http://www.w3.org/2000/svg">
<path d="M20.8282 6.10308C19.692 4.63172 18.1449 3.53037 16.3827 2.93831C14.6204 2.34625 12.7222 2.29008 10.928 2.7769C9.13389 3.26373 7.5244 4.27167 6.30313 5.67327C5.08186 7.07487 4.30367 8.80715 4.06698 10.651C3.83028 12.4949 4.14572 14.3676 4.9734 16.0322C5.80108 17.6968 7.10381 19.0786 8.71684 20.0028C10.3299 20.9269 12.1807 21.352 14.0354 21.2242C15.89 21.0965 17.6651 20.4215 19.1361 19.2849C23.2423 16.1116 24 10.2106 20.8279 6.10308H20.8282Z" fill="#FF6C37"/>
<path d="M16.5595 8.43746L12.5965 12.4319L11.4766 11.2806C15.3771 7.3801 15.7686 7.73255 16.5598 8.43746H16.5595Z" fill="white"/>
<path d="M12.5961 12.5412C12.561 12.5404 12.5275 12.5264 12.5022 12.5022L11.3743 11.3743C11.3489 11.348 11.3347 11.3129 11.3347 11.2764C11.3347 11.2398 11.3489 11.2047 11.3743 11.1784C15.2199 7.33285 15.7447 7.51289 16.6532 8.33528C16.6684 8.34746 16.6806 8.363 16.6887 8.38069C16.6969 8.39838 16.7008 8.41773 16.7002 8.4372C16.7061 8.47538 16.6914 8.51445 16.6611 8.53912L12.6981 12.5025C12.6703 12.5279 12.6338 12.5419 12.5961 12.5415V12.5412ZM11.6718 11.2803L12.5961 12.2046L16.3557 8.44513C16.2258 8.28246 16.0406 8.17335 15.8354 8.13867C15.6302 8.10399 15.4194 8.14617 15.2434 8.25716C14.562 8.56262 13.4655 9.49456 11.6718 11.2803V11.2803Z" fill="#FF6C37"/>
<path d="M13.7322 13.5362L12.6514 12.4319L16.6144 8.51556C17.6797 9.55735 16.0975 11.2961 13.7322 13.5359V13.5362Z" fill="white"/>
<path d="M13.732 13.6773C13.6973 13.6745 13.6644 13.6609 13.638 13.6382L12.5337 12.5574C12.5171 12.5172 12.5171 12.4721 12.5337 12.432C12.5219 12.399 12.5219 12.363 12.5337 12.33L16.4967 8.36703C16.5243 8.34114 16.5607 8.32672 16.5985 8.32672C16.6363 8.32672 16.6727 8.34114 16.7003 8.36703C16.8286 8.48516 16.93 8.62953 16.9976 8.79035C17.0651 8.95116 17.0973 9.12463 17.0918 9.29897C17.0918 10.3563 15.8855 11.6877 13.8336 13.6303C13.8062 13.6574 13.7702 13.6741 13.7317 13.6773H13.732ZM12.8547 12.432L13.7397 13.3166C15.306 11.8363 16.8022 10.309 16.8098 9.27518C16.8184 9.05601 16.7459 8.84137 16.6063 8.6722L12.8547 12.432Z" fill="#FF6C37"/>
<path d="M11.5077 11.3041L12.291 12.0874C12.296 12.0918 12.3 12.0972 12.3028 12.1033C12.3055 12.1094 12.3069 12.116 12.3069 12.1227C12.3069 12.1293 12.3055 12.1359 12.3028 12.142C12.3 12.1481 12.296 12.1535 12.291 12.1579L10.6383 12.5104C10.6049 12.5176 10.5701 12.5137 10.5392 12.4992C10.5083 12.4848 10.4829 12.4607 10.4669 12.4306C10.4509 12.4004 10.4453 12.3658 10.4508 12.3321C10.4563 12.2985 10.4726 12.2675 10.4973 12.244L11.4607 11.2885C11.4607 11.2885 11.4921 11.2885 11.5077 11.3041Z" fill="white"/>
<path d="M10.5991 12.6669C10.5468 12.6663 10.4957 12.6522 10.4504 12.6262C10.4052 12.6001 10.3674 12.5629 10.3406 12.518C10.3105 12.4612 10.2996 12.3962 10.3095 12.3327C10.3194 12.2691 10.3496 12.2105 10.3955 12.1656L11.351 11.2022C11.3854 11.1714 11.43 11.1544 11.4762 11.1544C11.5224 11.1544 11.567 11.1714 11.6015 11.2022L12.3848 11.9855C12.4312 12.0296 12.4494 12.0962 12.4318 12.1579C12.4142 12.2196 12.3625 12.2686 12.2987 12.2833L10.6461 12.6358L10.5991 12.6669ZM11.4764 11.4765L10.5914 12.3615L12.0561 12.0481L11.4764 11.4765Z" fill="#FF6C37"/>
<path d="M18.6666 6.23648C18.0997 5.68959 17.2091 5.66668 16.6146 6.18273C16.0201 6.69878 15.9185 7.58462 16.3814 8.22197C16.8443 8.85933 17.717 9.03791 18.3926 8.63317L17.3272 7.56788L18.6666 6.23648Z" fill="white"/>
<path d="M17.6091 8.99303C17.2834 8.98886 16.9662 8.88894 16.6969 8.70572C16.4276 8.52251 16.2181 8.26411 16.0947 7.96271C15.9713 7.66154 15.9389 7.33081 16.0016 7.01144C16.0642 6.69207 16.2191 6.39807 16.4471 6.16581C16.7607 5.858 17.1826 5.68555 17.622 5.68555C18.0614 5.68555 18.4833 5.858 18.7969 6.16581C18.8269 6.19107 18.8439 6.22837 18.8439 6.26773C18.8438 6.28709 18.8396 6.30621 18.8315 6.3238C18.8234 6.34138 18.8116 6.35702 18.7969 6.36964L17.528 7.56797L18.4914 8.51576C18.507 8.53066 18.5188 8.54916 18.5256 8.56964C18.5324 8.59012 18.5341 8.61196 18.5305 8.63324C18.5282 8.65377 18.5214 8.67355 18.5106 8.69116C18.4998 8.70877 18.4852 8.72379 18.4679 8.73516C18.2091 8.89692 17.9116 8.98619 17.6065 8.99362L17.6091 8.99303ZM17.6091 5.95405C17.051 5.95699 16.5517 6.29269 16.3423 6.8058C16.1329 7.3189 16.2468 7.90955 16.6381 8.3037C16.8327 8.49942 17.0818 8.63182 17.3529 8.68354C17.6241 8.73527 17.9045 8.70392 18.1575 8.59359L17.2331 7.6693C17.2184 7.65755 17.2066 7.64264 17.1984 7.62569C17.1903 7.60873 17.186 7.59016 17.186 7.57134C17.186 7.55253 17.1903 7.53396 17.1984 7.517C17.2066 7.50005 17.2184 7.48514 17.2331 7.47339L18.455 6.24364C18.2121 6.0575 17.9151 5.95572 17.6091 5.95376V5.95405Z" fill="#FF6C37"/>
<path d="M18.6898 6.25989L17.3506 7.59128L18.4158 8.65658C18.523 8.59502 18.6229 8.52141 18.7133 8.43717C18.9925 8.14206 19.1461 7.75001 19.1418 7.34378C19.1374 6.93755 18.9753 6.54891 18.6898 6.25989V6.25989Z" fill="white"/>
<path d="M18.3922 8.774C18.3746 8.77495 18.357 8.77193 18.3407 8.76517C18.3245 8.75841 18.3099 8.74807 18.2982 8.73493L17.2329 7.66964C17.2182 7.65789 17.2063 7.64298 17.1982 7.62603C17.19 7.60907 17.1858 7.5905 17.1858 7.57169C17.1858 7.55287 17.19 7.5343 17.1982 7.51734C17.2063 7.50039 17.2182 7.48548 17.2329 7.47373L18.5643 6.16583C18.5771 6.14645 18.5946 6.13054 18.6151 6.11954C18.6356 6.10854 18.6585 6.10278 18.6818 6.10278C18.705 6.10278 18.7279 6.10854 18.7484 6.11954C18.7689 6.13054 18.7864 6.14645 18.7993 6.16583C18.9556 6.31898 19.0797 6.50177 19.1645 6.7035C19.2493 6.90524 19.2929 7.12186 19.2929 7.34068C19.2929 7.5595 19.2493 7.77612 19.1645 7.97786C19.0797 8.17959 18.9556 8.36239 18.7993 8.51553C18.7071 8.61332 18.6016 8.69766 18.4859 8.76606C18.4567 8.78075 18.4231 8.78359 18.3919 8.774H18.3922ZM17.5307 7.56801L18.4157 8.45297C18.4765 8.4103 18.5342 8.36318 18.5881 8.31199C18.8482 8.05255 18.9947 7.70045 18.9955 7.33304C18.996 7.00425 18.8762 6.68662 18.6586 6.44016L17.5307 7.56801Z" fill="#FF6C37"/>
<path d="M16.7239 8.60203C16.6178 8.50241 16.4778 8.44696 16.3323 8.44696C16.1867 8.44696 16.0467 8.50241 15.9406 8.60203L12.3928 12.1419L12.9802 12.7373L16.7319 9.44764C16.7891 9.39281 16.8344 9.32684 16.8652 9.25381C16.896 9.18078 16.9115 9.10222 16.9107 9.02298C16.91 8.94373 16.893 8.86548 16.8609 8.79304C16.8288 8.72059 16.7822 8.65549 16.7239 8.60174V8.60203Z" fill="white"/>
<path d="M12.9487 12.8784C12.9136 12.8775 12.88 12.8636 12.8547 12.8393L12.2593 12.244C12.2339 12.2177 12.2197 12.1826 12.2197 12.146C12.2197 12.1095 12.2339 12.0744 12.2593 12.0481L15.8074 8.51561C15.9095 8.41354 16.04 8.34453 16.1819 8.31752C16.3238 8.29051 16.4706 8.30676 16.6031 8.36415C16.7357 8.42155 16.8479 8.51744 16.9253 8.6394C17.0027 8.76135 17.0416 8.90374 17.0371 9.04811C17.0331 9.1461 17.0095 9.24229 16.9678 9.33106C16.9261 9.41982 16.8671 9.49937 16.7942 9.56504L13.0426 12.8546C13.0154 12.8739 12.9818 12.8823 12.9487 12.8781V12.8784ZM12.5336 12.1418L12.9252 12.5412L16.6062 9.33771C16.6973 9.25841 16.7516 9.14504 16.7552 9.02432C16.7587 8.90361 16.7111 8.78553 16.6221 8.70329C16.5399 8.62145 16.4287 8.57551 16.3127 8.57551C16.1967 8.57551 16.0854 8.62145 16.0033 8.70329L12.5336 12.1418Z" fill="#FF6C37"/>
<path d="M9.64368 16.1756C9.63366 16.1892 9.62825 16.2057 9.62825 16.2226C9.62825 16.2395 9.63366 16.256 9.64368 16.2696L9.80022 16.951C9.8065 16.9911 9.80055 17.0322 9.78316 17.0688C9.76577 17.1055 9.73773 17.1361 9.70271 17.1566C9.66782 17.177 9.62735 17.1858 9.58713 17.1818C9.54691 17.1777 9.50902 17.161 9.47891 17.134L8.40601 16.1001L11.7504 12.7292H12.9097L13.693 13.5125C12.4711 14.5809 11.1087 15.4769 9.64368 16.1756V16.1756Z" fill="white"/>
<path d="M9.57312 17.327C9.48442 17.3252 9.3969 17.2888 9.33815 17.225L8.31223 16.1991C8.29754 16.1874 8.28567 16.1725 8.27752 16.1555C8.26937 16.1385 8.26514 16.12 8.26514 16.1012C8.26514 16.0823 8.26937 16.0638 8.27752 16.0468C8.28567 16.0299 8.29754 16.015 8.31223 16.0032L11.6799 12.6276C11.6988 12.6075 11.7234 12.5939 11.7504 12.5885H12.9173C12.9477 12.5778 12.9809 12.5778 13.0113 12.5885L13.7946 13.3718C13.8095 13.3856 13.8208 13.4027 13.8276 13.4218C13.8344 13.4409 13.8365 13.4613 13.8337 13.4814C13.8342 13.5009 13.8303 13.5202 13.8221 13.5379C13.814 13.5555 13.8018 13.5711 13.7867 13.5833L13.7241 13.6382C12.4973 14.661 11.1475 15.5266 9.70617 16.215L9.85508 16.8494C9.86659 16.8983 9.86703 16.9492 9.85637 16.9984C9.84571 17.0475 9.82421 17.0936 9.79345 17.1334C9.76269 17.1731 9.72344 17.2055 9.67857 17.2282C9.63369 17.2509 9.58432 17.2632 9.53406 17.2644L9.57312 17.327ZM8.61769 16.0972L9.54169 17.0291C9.5503 17.0368 9.56144 17.0411 9.57297 17.0411C9.58451 17.0411 9.59565 17.0368 9.60425 17.0291C9.61001 17.0211 9.61311 17.0115 9.61311 17.0017C9.61311 16.9918 9.61001 16.9822 9.60425 16.9742L9.44771 16.2928C9.43537 16.2439 9.44033 16.1922 9.46174 16.1466C9.48315 16.1009 9.5197 16.0641 9.56519 16.0423C10.9678 15.3631 12.2827 14.5162 13.4812 13.5202L12.8389 12.8778H11.7894L8.61769 16.0972Z" fill="#FF6C37"/>
<path d="M7.59919 16.904L8.38254 16.1207L9.58884 17.3269L7.66998 17.1939C7.63703 17.1913 7.60575 17.1784 7.58058 17.157C7.55541 17.1355 7.53766 17.1067 7.52984 17.0746C7.52202 17.0425 7.52455 17.0088 7.53706 16.9782C7.54956 16.9476 7.57141 16.9217 7.59949 16.9043L7.59919 16.904Z" fill="white"/>
<path d="M9.61236 17.4445L7.70115 17.3114C7.58778 17.3008 7.49027 17.2233 7.45032 17.1196C7.41038 17.0159 7.43475 16.8929 7.51318 16.81L8.29652 16.0267C8.3228 16.0013 8.35792 15.9871 8.39447 15.9871C8.43102 15.9871 8.46614 16.0013 8.49242 16.0267L9.69078 17.2251C9.70737 17.2478 9.71632 17.2752 9.71632 17.3033C9.71632 17.3315 9.70737 17.3589 9.69078 17.3816C9.67267 17.4109 9.64495 17.433 9.61236 17.4442V17.4445ZM7.70115 17.0059L9.26754 17.1079L8.40607 16.301L7.70115 17.0059Z" fill="#FF6C37"/>
<path d="M13.0192 12.8238L11.437 13.0667L12.3534 12.1582L13.0192 12.8238Z" fill="white"/>
<path d="M11.437 13.215C11.4107 13.2157 11.3848 13.2086 11.3625 13.1947C11.3402 13.1807 11.3225 13.1605 11.3116 13.1366C11.2949 13.1139 11.2859 13.0864 11.2859 13.0583C11.2859 13.0301 11.2949 13.0027 11.3116 12.98L12.22 12.0636C12.2475 12.0377 12.2839 12.0233 12.3217 12.0233C12.3595 12.0233 12.3959 12.0377 12.4235 12.0636L13.0896 12.7292C13.1029 12.7503 13.11 12.7747 13.11 12.7997C13.11 12.8246 13.1029 12.8491 13.0896 12.8702C13.0831 12.8959 13.0693 12.9192 13.0498 12.9373C13.0304 12.9553 13.0062 12.9674 12.9801 12.9721L11.4138 13.215H11.437ZM12.3533 12.3612L11.8443 12.8702L12.7216 12.7371L12.3533 12.3612Z" fill="#FF6C37"/>
<path d="M13.0192 12.8232L11.9149 12.9642C11.8853 12.9709 11.8544 12.9679 11.8267 12.9556C11.7989 12.9434 11.7759 12.9225 11.761 12.8962C11.746 12.8698 11.74 12.8393 11.7438 12.8092C11.7475 12.7792 11.7609 12.7511 11.7818 12.7292L12.3536 12.1573L13.0192 12.8232Z" fill="white"/>
<path d="M11.8837 13.1135C11.8325 13.113 11.7823 13.099 11.7383 13.0728C11.6943 13.0467 11.658 13.0093 11.6331 12.9646C11.6032 12.911 11.5916 12.8491 11.6001 12.7883C11.6086 12.7274 11.6367 12.6711 11.6801 12.6277L12.252 12.0558C12.2796 12.0299 12.3159 12.0155 12.3538 12.0155C12.3916 12.0155 12.428 12.0299 12.4555 12.0558L13.1214 12.7217C13.1412 12.7404 13.1551 12.7645 13.1615 12.7911C13.1679 12.8176 13.1664 12.8454 13.1573 12.8711C13.1482 12.8968 13.1318 12.9193 13.1102 12.9359C13.0885 12.9525 13.0625 12.9625 13.0353 12.9646L11.9389 13.1056L11.8837 13.1135ZM11.8837 12.8236L12.714 12.7217L12.346 12.3536L11.876 12.8236H11.8837ZM18.6978 7.16072C18.683 7.136 18.6597 7.11756 18.6323 7.1089C18.6048 7.10024 18.5751 7.10195 18.5489 7.11372C18.5359 7.12029 18.5244 7.1294 18.515 7.1405C18.5056 7.1516 18.4986 7.16447 18.4942 7.17834C18.4855 7.20634 18.4883 7.23666 18.5019 7.26264C18.5568 7.37807 18.5415 7.51465 18.4628 7.6151C18.453 7.62478 18.4454 7.63638 18.4403 7.64917C18.4353 7.66196 18.4329 7.67567 18.4334 7.68941C18.4337 7.71696 18.4442 7.74342 18.4628 7.76372C18.4829 7.77166 18.5053 7.77166 18.5254 7.76372C18.5436 7.76831 18.5628 7.7678 18.5807 7.76226C18.5987 7.75672 18.6148 7.74635 18.6273 7.73229C18.6918 7.65333 18.7326 7.55773 18.7451 7.45654C18.7576 7.35535 18.7412 7.25269 18.6978 7.16043V7.16072Z" fill="#FF6C37"/>
</svg>
