<svg width="24" height="24" viewBox="0 0 24 24" fill="none" xmlns="http://www.w3.org/2000/svg">
<g id="postgresql">
<path id="Vector" d="M23.907 14.37C23.7631 13.9474 23.3861 13.653 22.8986 13.5824C22.6687 13.5491 22.4055 13.5633 22.0939 13.6256C21.5509 13.7342 21.1481 13.7756 20.8541 13.7836C21.9638 11.9669 22.8662 9.89533 23.3856 7.94527C24.2256 4.79205 23.7767 3.35557 23.2522 2.70582C21.8641 0.985999 19.8388 0.0620963 17.3955 0.0338265C16.0921 0.0183736 14.9478 0.267893 14.3509 0.447329C13.7952 0.352248 13.1976 0.299162 12.5706 0.289345C11.3953 0.271165 10.3568 0.519594 9.46946 1.03018C8.97821 0.869102 8.18978 0.642035 7.27928 0.497141C5.13784 0.156268 3.4119 0.421877 2.14946 1.2866C0.620777 2.33358 -0.087879 4.15267 0.0431835 6.69331C0.0848085 7.49995 0.550184 9.95424 1.28293 12.2818C1.70406 13.6197 2.15312 14.7306 2.61765 15.5842C3.27643 16.7945 3.98134 17.5073 4.77268 17.7632C5.21621 17.9065 6.02209 18.0068 6.86968 17.3224C6.97712 17.4485 7.12046 17.5739 7.31068 17.6903C7.55228 17.838 7.84768 17.9588 8.14271 18.0303C9.20593 18.288 10.2018 18.2236 11.0515 17.8623C11.0567 18.0088 11.0608 18.1488 11.0642 18.2697C11.0698 18.4658 11.0754 18.6581 11.0828 18.8379C11.1332 20.0535 11.2185 20.9988 11.4712 21.6602C11.4851 21.6965 11.5037 21.752 11.5234 21.8108C11.6495 22.1851 11.8604 22.8118 12.3968 23.3026C12.9523 23.811 13.6242 23.9669 14.2396 23.9669C14.5482 23.9669 14.8427 23.9276 15.1009 23.874C16.0216 23.6826 17.0672 23.3912 17.8235 22.3469C18.5386 21.3598 18.8863 19.8729 18.9492 17.5302C18.9573 17.4639 18.9648 17.4006 18.9721 17.3404L18.9871 17.2166L19.1555 17.2309L19.1989 17.2337C20.1366 17.2752 21.2832 17.0824 21.9873 16.7652C22.5437 16.5149 24.3268 15.6022 23.907 14.37" fill="black"/>
<path id="Vector_2" d="M22.3037 14.6096C19.5156 15.1673 19.3239 14.252 19.3239 14.252C22.2676 10.0167 23.4983 4.64064 22.4364 3.32486C19.5391 -0.264327 14.524 1.43314 14.4402 1.47714L14.4133 1.48186C13.8625 1.37096 13.246 1.30497 12.5531 1.29397C11.2916 1.27397 10.3346 1.61467 9.60845 2.14861C9.60845 2.14861 0.66189 -1.42503 1.07805 6.64307C1.16655 8.35945 3.6153 19.6302 6.53598 16.2259C7.60351 14.9811 8.63505 13.9285 8.63505 13.9285C9.1473 14.2585 9.76061 14.4268 10.4035 14.3664L10.4535 14.3253C10.438 14.4798 10.4451 14.631 10.4735 14.81C9.72105 15.6251 9.9422 15.7682 8.43808 16.0684C6.91605 16.3726 7.81014 16.914 8.39392 17.0556C9.10164 17.2271 10.7389 17.4702 11.8451 15.9686L11.8011 16.1399C12.0958 16.3689 12.3028 17.6292 12.2681 18.7717C12.2335 19.9141 12.2103 20.6985 12.4425 21.3112C12.6749 21.9238 12.9064 23.3023 14.8838 22.8915C16.5359 22.5482 17.3921 21.6586 17.5113 20.1745C17.5958 19.1196 17.7871 19.2755 17.7991 18.3323L17.9526 17.8858C18.1295 16.4556 17.9807 15.9942 18.9985 16.2088L19.246 16.2299C19.9951 16.2629 20.9757 16.113 21.5513 15.8537C22.7904 15.2961 23.5254 14.365 22.3035 14.6096H22.3037Z" fill="#336791"/>
<path id="Vector_3" d="M10.132 7.41064C9.88076 7.37673 9.65323 7.40809 9.5381 7.49263C9.47341 7.54017 9.45335 7.59526 9.44791 7.63316C9.43348 7.73361 9.50604 7.84469 9.55066 7.90195C9.67685 8.06412 9.86116 8.17556 10.0436 8.2001C10.07 8.20374 10.0964 8.20538 10.1225 8.20538C10.4268 8.20538 10.7034 7.97567 10.7278 7.80614C10.7583 7.5938 10.4404 7.45227 10.132 7.41073V7.41064ZM18.4555 7.41736C18.4315 7.25093 18.1261 7.20348 17.8362 7.24256C17.5467 7.28165 17.266 7.40837 17.2894 7.57517C17.3082 7.70488 17.5498 7.92631 17.8357 7.92631C17.8599 7.92631 17.8843 7.92477 17.9089 7.92141C18.0997 7.89577 18.2398 7.77824 18.3064 7.71052C18.4076 7.60725 18.4663 7.49218 18.4555 7.41736" fill="white"/>
<path id="Vector_4" d="M23.2314 14.5462C23.1251 14.2345 22.7829 14.1342 22.2144 14.2481C20.5265 14.5858 19.922 14.3519 19.7235 14.2101C21.0355 12.2722 22.1149 9.92951 22.6971 7.74383C22.973 6.70848 23.1253 5.74695 23.1378 4.96321C23.1516 4.10303 23.0004 3.47092 22.6888 3.08478C21.4324 1.52812 19.5883 0.693119 17.3561 0.670212C15.8215 0.653486 14.525 1.03426 14.2736 1.14134C13.7443 1.01372 13.1673 0.935366 12.5391 0.925367C11.3871 0.907278 10.3912 1.1747 9.56681 1.71983C9.20868 1.59057 8.28318 1.28251 7.15134 1.10571C5.19459 0.800289 3.63965 1.03172 2.53003 1.79391C1.20599 2.70345 0.594744 4.32928 0.71315 6.62613C0.752994 7.39887 1.20712 9.77607 1.92374 12.0526C2.86706 15.0491 3.89249 16.7453 4.97137 17.0943C5.09765 17.1351 5.24324 17.1637 5.40384 17.1637C5.7974 17.1637 6.27993 16.9917 6.78196 16.4065C7.3943 15.6942 8.02772 14.9993 8.68143 14.3225C9.10556 14.5432 9.57149 14.6665 10.048 14.6788C10.049 14.6909 10.0502 14.703 10.0513 14.715C9.96928 14.8098 9.88895 14.9061 9.81037 15.0036C9.48018 15.41 9.41146 15.4946 8.34862 15.7068C8.04628 15.7673 7.24331 15.9278 7.23149 16.4735C7.21874 17.0698 8.18071 17.3203 8.29031 17.3468C8.67224 17.4395 9.04021 17.4853 9.39112 17.4853C10.2445 17.4853 10.9956 17.2133 11.5957 16.6871C11.5773 18.8128 11.6687 20.9075 11.9319 21.5457C12.1476 22.0682 12.6742 23.3451 14.3379 23.345C14.5821 23.345 14.8507 23.3175 15.1463 23.256C16.8827 22.8951 17.6367 22.151 17.9284 20.5106C18.0845 19.6338 18.3523 17.5403 18.4783 16.4174C18.7442 16.4978 19.0865 16.5346 19.4565 16.5345C20.2282 16.5345 21.1188 16.3756 21.6772 16.1242C22.3046 15.8417 23.4367 15.1485 23.2314 14.5462V14.5462ZM19.0965 6.95791C19.0908 7.28942 19.0437 7.59039 18.9938 7.90454C18.9401 8.24241 18.8846 8.59174 18.8706 9.01579C18.8569 9.42847 18.91 9.85752 18.9614 10.2725C19.0653 11.1106 19.1719 11.9734 18.7593 12.8247C18.6907 12.707 18.6297 12.5853 18.5765 12.4603C18.5252 12.3398 18.4138 12.1462 18.2596 11.8782C17.6597 10.835 16.2548 8.39222 16.974 7.39541C17.1882 7.09872 17.7319 6.79366 19.0965 6.95791V6.95791ZM17.4424 1.3415C19.4424 1.38432 21.0246 2.10979 22.1447 3.49764C23.0038 4.56217 22.0578 9.40593 19.3191 13.5847C19.2915 13.5507 19.2638 13.5169 19.236 13.4831L19.2013 13.4411C19.909 12.3079 19.7706 11.1866 19.6475 10.1926C19.5968 9.78461 19.549 9.39929 19.5612 9.03733C19.5738 8.65373 19.6261 8.32468 19.6767 8.00653C19.7389 7.61448 19.8021 7.2088 19.7847 6.73057C19.7977 6.6804 19.803 6.62113 19.7961 6.55077C19.7516 6.09219 19.2116 4.71969 18.111 3.47746C17.5089 2.79799 16.631 2.03761 15.4322 1.52476C15.9478 1.42113 16.6529 1.32451 17.4424 1.3415V1.3415ZM6.25068 15.9781C5.69756 16.623 5.31562 16.4994 5.18999 16.4588C4.37156 16.1941 3.42187 14.5168 2.58459 11.8571C1.86009 9.55573 1.43671 7.24152 1.40315 6.59259C1.2974 4.54026 1.81049 3.10995 2.92828 2.34131C4.7474 1.09053 7.73821 1.83918 8.93999 2.21887C8.92274 2.23541 8.90474 2.25086 8.88768 2.26768C6.91556 4.19875 6.96234 7.49804 6.96721 7.69974C6.96703 7.77755 6.97378 7.88772 6.98296 8.03925C7.0169 8.59419 7.08009 9.627 6.91134 10.7966C6.75459 11.8835 7.10015 12.9473 7.85924 13.7153C7.93715 13.794 8.01903 13.8688 8.10459 13.9396C7.76671 14.2905 7.03237 15.0664 6.25068 15.9781V15.9781ZM8.35809 13.2518C7.74627 12.6328 7.4684 11.7718 7.59562 10.8893C7.77374 9.65381 7.70803 8.57774 7.67268 7.99962C7.66771 7.91872 7.66331 7.84782 7.66077 7.79192C7.94887 7.54421 9.28396 6.85065 10.2361 7.06217C10.6705 7.15862 10.9353 7.4455 11.0453 7.9389C11.615 10.4934 11.1207 11.5582 10.7236 12.4138C10.6417 12.59 10.5644 12.7567 10.4984 12.929L10.4472 13.0623C10.3176 13.3991 10.1971 13.7124 10.1224 14.0098C9.47193 14.008 8.83921 13.7386 8.35809 13.2517V13.2518ZM8.45793 16.6969C8.26799 16.6509 8.09718 16.571 7.99696 16.5047C8.08068 16.4665 8.22965 16.4146 8.48803 16.3629C9.73837 16.1134 9.93149 15.9372 10.3532 15.4181C10.4498 15.299 10.5594 15.1641 10.7112 14.9998L10.7114 14.9996C10.9374 14.7542 11.0408 14.7958 11.2283 14.8713C11.3803 14.9322 11.5283 15.1169 11.5883 15.3201C11.6167 15.4161 11.6486 15.5983 11.5443 15.7401C10.6634 16.936 9.37978 16.9206 8.45793 16.6969V16.6969ZM15.0016 22.601C13.472 22.9188 12.9304 22.162 12.5735 21.2969C12.3431 20.7385 12.2299 18.22 12.3102 15.4387C12.3112 15.4017 12.3058 15.366 12.2953 15.3324C12.2859 15.266 12.2716 15.2003 12.2526 15.1359C12.1331 14.7312 11.842 14.3927 11.4928 14.2523C11.3541 14.1966 11.0994 14.0943 10.7934 14.1702C10.8587 13.9095 10.9718 13.6151 11.0946 13.2963L11.146 13.1623C11.204 13.0111 11.2767 12.8545 11.3536 12.6887C11.7692 11.7935 12.3383 10.5674 11.7206 7.79737C11.4892 6.75984 10.7166 6.25317 9.54524 6.37088C8.84306 6.44133 8.20059 6.71603 7.88015 6.87356C7.81124 6.90737 7.74824 6.9401 7.68937 6.97191C7.77881 5.92657 8.11668 3.97295 9.38062 2.7369C10.1765 1.9588 11.2363 1.57448 12.5276 1.59521C15.072 1.63556 16.7036 2.90161 17.6244 3.95668C18.4179 4.86577 18.8476 5.78158 19.0191 6.27553C17.7295 6.14836 16.8525 6.39515 16.4079 7.01145C15.4407 8.35204 16.9371 10.9539 17.6562 12.2045C17.7881 12.4336 17.9019 12.6317 17.9377 12.7159C18.1719 13.2662 18.4751 13.6336 18.6965 13.9017C18.7643 13.9839 18.8301 14.0636 18.8802 14.1332C18.4896 14.2424 17.7881 14.4947 17.8521 15.7555C17.8005 16.3882 17.4338 19.3502 17.2476 20.3968C17.0016 21.7794 16.4769 22.2943 15.0016 22.6011V22.601ZM21.3863 15.5166C20.987 15.6964 20.3186 15.8312 19.6837 15.8602C18.9825 15.892 18.6255 15.784 18.5415 15.7175C18.5021 14.9318 18.8037 14.8497 19.1229 14.7628C19.1731 14.7492 19.222 14.7358 19.2693 14.7198C19.2986 14.743 19.3308 14.766 19.366 14.7885C19.9296 15.1492 20.9349 15.1881 22.3542 14.9041L22.3698 14.9011C22.1783 15.0746 21.8508 15.3075 21.3863 15.5166Z" fill="white"/>
</g>
</svg>
