<svg width="24" height="24" viewBox="0 0 24 24" fill="none" xmlns="http://www.w3.org/2000/svg">
<g id="spring" clip-path="url(#clip0)">
<path id="Vector" d="M21.8536 1.41578C21.5204 2.21512 21.0891 2.96994 20.5696 3.66288C19.4573 2.51268 18.1256 1.59724 16.6532 0.970711C15.1809 0.34418 13.5979 0.0192827 11.9978 0.015236C10.3978 0.0111894 8.81313 0.328076 7.33766 0.947152C5.8622 1.56623 4.52587 2.47492 3.40772 3.61948C2.28958 4.76403 1.41233 6.12121 0.827864 7.61072C0.243398 9.10024 -0.0364132 10.6918 0.00498209 12.2914C0.0463773 13.8909 0.408138 15.4659 1.06887 16.9232C1.72959 18.3805 2.67587 19.6905 3.85172 20.7757L4.29622 21.1708C5.98299 22.5933 8.03058 23.5213 10.2122 23.8519C12.3939 24.1824 14.6245 23.9027 16.6569 23.0437C18.6894 22.1847 20.4445 20.7799 21.7278 18.9849C23.0111 17.1899 23.7725 15.0748 23.9278 12.8737C24.2735 9.86108 23.3598 6.00878 21.8535 1.41568L21.8536 1.41578ZM5.58042 20.8745C5.45345 21.0305 5.28308 21.1454 5.09085 21.2046C4.89861 21.2638 4.69313 21.2647 4.50037 21.2072C4.30762 21.1497 4.13624 21.0363 4.00789 20.8815C3.87954 20.7266 3.79999 20.5371 3.77929 20.337C3.75859 20.1369 3.79766 19.9352 3.89157 19.7573C3.98549 19.5794 4.13003 19.4334 4.30692 19.3376C4.48382 19.2418 4.68513 19.2007 4.88542 19.2193C5.08572 19.2379 5.276 19.3155 5.43222 19.4422C5.63702 19.6156 5.76682 19.8616 5.79444 20.1285C5.82206 20.3955 5.74537 20.6628 5.58042 20.8745V20.8745ZM21.7795 17.2939C18.841 21.2202 12.5194 19.8867 8.49432 20.0843C8.49432 20.0843 7.77822 20.1337 7.06202 20.2324C7.06202 20.2324 7.33372 20.109 7.67942 19.9855C10.5192 18.9978 11.8526 18.8002 13.5812 17.9112C16.8161 16.2567 20.051 12.6268 20.693 8.87328C19.4583 12.4786 15.7049 15.59 12.2971 16.8494C9.95122 17.7137 5.72862 18.5533 5.72862 18.5533L5.55572 18.4545C2.69122 17.0469 2.59252 10.8241 7.82752 8.82388C10.1241 7.93488 12.2971 8.42888 14.7912 7.83618C17.4334 7.21878 20.4955 5.24328 21.7302 2.65048C23.113 6.82368 24.7922 13.2935 21.7795 17.2939V17.2939Z" fill="#6DB33F"/>
</g>
<defs>
<clipPath id="clip0">
<rect width="24" height="24" fill="white"/>
</clipPath>
</defs>
</svg>
